<?xml version="1.0" encoding="UTF-8"?>
<svg id="Layer_1" data-name="Layer 1" xmlns="http://www.w3.org/2000/svg" viewBox="0 0 46 36">
  <path d="M43.81,4h-2.19V2c0-1.19-.82-2-2.19-2h0s-4.38,0-4.38,0c-4.38,0-8.17.78-12.05,4C19.12.78,15.33,0,10.95,0h-4.38s0,0,0,0c-1.37,0-2.19.81-2.19,2v2h-2.19C.98,4,0,4.89,0,6v26C0,33.11.98,34,2.19,34h17.52c0,1.11.98,2,2.19,2h2.19c1.21,0,2.19-.89,2.19-2h17.52c1.21,0,2.19-.89,2.19-2V6c0-1.11-.98-2-2.19-2ZM2.19,30V6h2.19v20c0,1.19.82,2,2.19,2h4.38c2.19,0,4.74.24,7.39,2H2.19ZM21.9,30c-3.88-3.22-6.57-4-10.95-4h-4.38s0-24,0-24h0s0,0,4.38,0c6.57,0,8.54,1.99,10.95,4v24ZM24.1,30V6c1.6-1.33,3-2.64,5.67-3.39v8.56l2.83-2.06,2.83,2.06V2h4v24h-4.38c-4.38,0-7.08.78-10.95,4ZM43.81,30h-16.15c2.65-1.76,5.2-2,7.39-2h4.38c1.37,0,2.19-.81,2.19-2V6h2.19v24Z"/>
</svg>