<?xml version="1.0" encoding="utf-8"?>
<!-- Generator: Adobe Illustrator 29.7.1, SVG Export Plug-In . SVG Version: 9.03 Build 0)  -->
<svg version="1.0"
	 id="svg0" xmlns:inkscape="http://www.inkscape.org/namespaces/inkscape" xmlns:dc="http://purl.org/dc/elements/1.1/" xmlns:rdf="http://www.w3.org/1999/02/22-rdf-syntax-ns#" xmlns:sodipodi="http://sodipodi.sourceforge.net/DTD/sodipodi-0.dtd" xmlns:cc="http://creativecommons.org/ns#" xmlns:svg="http://www.w3.org/2000/svg"
	 xmlns="http://www.w3.org/2000/svg" xmlns:xlink="http://www.w3.org/1999/xlink" x="0px" y="0px" viewBox="0 0 30 30"
	 style="enable-background:new 0 0 30 30;" xml:space="preserve">
<style type="text/css">
	.st0{fill:url(#circle4163_00000046320665740063267370000005609433279968561552_);}
	.st1{fill:url(#circle4165_00000134222518400094540500000008272474791848653481_);}
	.st2{opacity:0.2981;fill:#FFFFFF;enable-background:new    ;}
	.st3{fill:url(#circle14328_00000134928514658860314560000009558190918664308109_);}
	.st4{fill:#1A7A0B;}
	.st5{fill:url(#SVGID_1_);}
</style>
<sodipodi:namedview  bordercolor="#666666" borderopacity="1.0" gridtolerance="10.0" guidetolerance="10.0" id="base" inkscape:current-layer="svg0" inkscape:cx="129.85178" inkscape:cy="233.82175" inkscape:guide-bbox="true" inkscape:pageopacity="0.0" inkscape:pageshadow="2" inkscape:window-height="1051" inkscape:window-maximized="1" inkscape:window-width="1920" inkscape:window-x="0" inkscape:window-y="0" inkscape:zoom="1.2725806" objecttolerance="10.0" pagecolor="#ffffff" showgrid="false" showguides="true">
	</sodipodi:namedview>
<defs>
	
		<inkscape:perspective  id="perspective85" inkscape:persp3d-origin="310 : 206.66667 : 1" inkscape:vp_x="0 : 310 : 1" inkscape:vp_y="0 : 1000 : 0" inkscape:vp_z="620 : 310 : 1" sodipodi:type="inkscape:persp3d">
		</inkscape:perspective>
</defs>
<g>
	
		<radialGradient id="circle4163_00000037678244370744102310000010954427334595801239_" cx="4.0994" cy="26.3266" r="1.5484" gradientTransform="matrix(9.1013 -5.319390e-02 -4.850020e-02 -8.549 -20.6624 241.6587)" gradientUnits="userSpaceOnUse">
		<stop  offset="0" style="stop-color:#000000;stop-opacity:0.3118"/>
		<stop  offset="0.88" style="stop-color:#000000;stop-opacity:0.6057"/>
		<stop  offset="1" style="stop-color:#000000;stop-opacity:0"/>
	</radialGradient>
	
		<ellipse id="circle4163" inkscape:label="shadow" style="fill:url(#circle4163_00000037678244370744102310000010954427334595801239_);" cx="16.1" cy="15.1" rx="15.8" ry="16">
	</ellipse>
	
		<radialGradient id="circle4165_00000005242309896863471050000008268351659967508614_" cx="-3.894" cy="-9.2016" r="1.5659" gradientTransform="matrix(3.2793 10.1729 8.5003 -2.6588 100.1833 25.9559)" gradientUnits="userSpaceOnUse">
		<stop  offset="0" style="stop-color:#D8EBFF"/>
		<stop  offset="1" style="stop-color:#4FA9FF"/>
	</radialGradient>
	
		<circle id="circle4165" inkscape:label="blueOcean" style="fill:url(#circle4165_00000005242309896863471050000008268351659967508614_);" cx="14.8" cy="14.8" r="13.2">
	</circle>
	<circle id="path3228" inkscape:label="oceanGradient" class="st2" cx="14.8" cy="14.8" r="13.2">
	</circle>
	<g>
		
			<radialGradient id="circle14328_00000162337345601619415890000000746555109371975572_" cx="34.1153" cy="28.1627" r="1.5073" gradientTransform="matrix(3.3818 -11.7542 -9.7184 -2.805 169.9203 490.9377)" gradientUnits="userSpaceOnUse">
			<stop  offset="0" style="stop-color:#49C007"/>
			<stop  offset="1" style="stop-color:#209305"/>
		</radialGradient>
		
			<path id="circle14328_00000098901717373075835000000010312161977070679465_" inkscape:connector-curvature="0" inkscape:label="landmass" style="fill:url(#circle14328_00000162337345601619415890000000746555109371975572_);" d="
			M5.9,4.8c-1.7,1.5-2.9,3.4-3.7,5.4c0.4-0.5,0.9-1,1.4-1.3c1.6,0.6,3.6-1.3,4.1-2.7C8.6,5.5,6.9,5.1,5.9,4.8z M16.9,4.4
			c-1.3,0.6-2.8,1.9-2.3,2.5c1-0.7,2.1-0.4,1.3,0.9c-1.1,1.7-2-0.6-3.1,0.1c0.5,0.5-1.4,1.2-2,1.2c-1.2-0.2,1,0.9,0.2,1.2
			c-2.4,0.4,1.2,1.7,1.3-0.2c2.2-1.2,2.3,2.7,4.7,2.2c-0.6-0.9,0.1-2.1,1.3-2.2c2.2,0.6-1.4,1.7,0.2,2c-0.2,0.9-2.2,1.1-3,1.9
			c-2.4-0.1-3.4-3.6-6-2c-1.8,0.4-2.8,2.9-2.3,4.5c0.8,2.3,2.6,2.5,4.7,2.6c1.9,1,1.4,4.5,2.2,6.6c1.1,1,4.2,3.4,4.2,0.4
			c-0.3-2.1,2.3-6.2,3.3-8c1.6-2.6-1.6,0.3-2.3-1c-0.5-2.7,2.3-0.3,3.5-1.1c1.2,0.7,3-0.6,3.2,1.4c0.4,2.5,1.4-0.8,2-1.1
			c0.2-2.2-0.1-4.5-1-6.7c-1.2-2.8-3.2-4.9-5.6-6.3c-0.5-0.1-1.1,0-1.3,0.4C20.3,5,18.9,5,18.1,4.1C17.8,4.1,17.4,4.2,16.9,4.4
			L16.9,4.4z M1.5,13.3c-0.2,2.1,0,4.3,0.8,6.4c-0.2-1.7,0.2-3.5,1.4-4.6C4,14.7,3.5,13.6,1.5,13.3C1.5,13.3,1.5,13.3,1.5,13.3
			L1.5,13.3z"/>
		<path class="st4" d="M17.2,27.5c-1.2,0-3.1-1.7-3.3-1.9l0,0l0,0c-0.3-0.7-0.4-1.6-0.5-2.5c-0.2-1.7-0.4-3.4-1.6-4
			C9.6,19,7.9,18.7,7,16.4l0,0c-0.3-1-0.1-2.2,0.5-3.2c0.5-0.8,1.1-1.3,1.9-1.5c1.6-1,2.6-0.1,3.6,0.7c0.7,0.6,1.4,1.2,2.4,1.3
			c0.3-0.3,0.9-0.6,1.5-0.8c0.6-0.3,1.3-0.5,1.4-0.9c-0.2,0-0.3-0.1-0.4-0.3c-0.1-0.2,0.2-0.4,0.5-0.7c0.2-0.2,0.6-0.5,0.5-0.6
			c0-0.1-0.1-0.2-0.6-0.4c-0.6,0.1-1.1,0.4-1.3,0.9c-0.2,0.4-0.1,0.8,0.1,1.1l0.1,0.1l-0.2,0c-0.2,0-0.3,0.1-0.5,0.1
			c-0.9,0-1.5-0.7-2-1.4c-0.6-0.8-1.1-1.4-2.2-0.9c0,0.7-0.5,1.1-1.2,1.1c-0.5,0-1.1-0.2-1.1-0.5c0-0.3,0.3-0.4,0.9-0.5
			c0.1,0,0.1-0.1,0.1-0.1c0-0.1-0.3-0.4-0.4-0.6c-0.2-0.2-0.4-0.3-0.3-0.5c0.1-0.1,0.2-0.1,0.5-0.1c0.5,0,1.8-0.5,2-0.9
			c0,0,0-0.1,0-0.1l-0.1-0.1l0.1-0.1c0.5-0.3,1,0,1.5,0.2c0.6,0.3,1,0.6,1.6-0.2c0.3-0.4,0.3-0.8,0.1-0.9c-0.2-0.2-0.7-0.1-1.3,0.2
			L14.6,7l-0.1-0.1c-0.1-0.1-0.2-0.3-0.1-0.5c0.1-0.6,1.1-1.6,2.5-2.1C17.4,4,17.8,3.9,18.1,4l0,0l0,0c0.4,0.5,1.1,0.7,1.5,0.5
			c0.3-0.1,0.4-0.5,0.3-0.9l0,0l0,0c0.2-0.4,0.7-0.6,1.4-0.5l0,0l0,0c2.6,1.5,4.5,3.7,5.7,6.4c0.9,2.1,1.2,4.4,1,6.7l0,0.1l-0.1,0
			c-0.2,0.1-0.4,0.5-0.6,0.9c-0.4,0.6-0.7,1.2-1.1,1.2c-0.2,0-0.4-0.4-0.5-1l0,0c-0.1-1.1-0.8-1.1-1.6-1.1c-0.5,0-1,0-1.5-0.2
			c-0.5,0.3-1.3,0.1-1.9-0.1c-0.6-0.1-1.1-0.3-1.4-0.1c-0.2,0.2-0.2,0.5-0.1,1.1c0.3,0.5,1.1,0.2,1.7,0c0.5-0.2,0.8-0.3,1-0.1
			c0.1,0.1,0.1,0.4-0.4,1.2c-0.2,0.3-0.4,0.7-0.6,1.1c-1.2,2-3,5.1-2.7,6.8l0,0c0,0.8-0.2,1.3-0.6,1.5
			C17.5,27.5,17.4,27.5,17.2,27.5z M14.1,25.5c0.8,0.8,2.6,2.1,3.5,1.8c0.3-0.2,0.5-0.6,0.5-1.3c-0.3-1.8,1.5-4.9,2.7-7
			c0.2-0.4,0.4-0.8,0.6-1.1c0.5-0.8,0.4-1,0.4-1c-0.1-0.1-0.5,0.1-0.7,0.2c-0.7,0.2-1.6,0.6-2-0.1l0,0l0,0c-0.1-0.7-0.1-1.1,0.2-1.3
			c0.3-0.3,0.9-0.2,1.6,0c0.7,0.2,1.3,0.3,1.8,0l0.1,0l0.1,0c0.4,0.3,0.9,0.2,1.4,0.2c0.8,0,1.7-0.1,1.9,1.3
			c0.1,0.7,0.3,0.8,0.3,0.8c0.2,0,0.6-0.6,0.8-1.1c0.2-0.4,0.4-0.8,0.6-0.9c0.2-2.2-0.1-4.5-1-6.6c-1.1-2.7-3.1-4.8-5.6-6.3
			c-0.6-0.1-0.9,0-1.1,0.3c0.1,0.8-0.2,1.1-0.4,1.2c-0.5,0.2-1.2,0-1.7-0.5c-0.3,0-0.7,0.1-1.1,0.3l0-0.1l0,0.1
			c-1.1,0.5-2.2,1.4-2.3,2c0,0.1,0,0.2,0,0.3c0.6-0.3,1.2-0.4,1.5-0.1c0.2,0.1,0.3,0.5-0.1,1.2c-0.7,1.1-1.3,0.7-1.9,0.3
			c-0.4-0.2-0.7-0.4-1.1-0.3c0,0.1,0,0.2,0,0.2c-0.2,0.5-1.7,1-2.2,1l0,0l0,0c-0.1,0-0.1,0-0.2,0c0,0.1,0.1,0.1,0.2,0.2
			c0.3,0.2,0.5,0.5,0.5,0.8c0,0.1-0.1,0.2-0.3,0.3l0,0l0,0c-0.6,0.1-0.7,0.3-0.7,0.3c0,0.1,0.4,0.3,0.9,0.3c0.3,0,1-0.1,1-0.9l0-0.1
			l0.1,0c1.3-0.7,1.9,0.1,2.5,0.9c0.5,0.7,1.1,1.4,2,1.2c-0.2-0.4-0.2-0.8,0-1.2c0.3-0.6,0.8-1,1.6-1l0,0l0,0
			c0.5,0.1,0.7,0.3,0.8,0.5c0.1,0.3-0.3,0.6-0.6,0.9c-0.1,0.1-0.4,0.3-0.4,0.4c0,0,0,0.1,0.3,0.1l0.1,0l0,0.1
			c-0.1,0.6-0.8,0.9-1.6,1.2c-0.5,0.2-1.1,0.5-1.4,0.8l0,0l-0.1,0c-1.1,0-1.8-0.7-2.6-1.3c-1-0.9-1.9-1.6-3.3-0.7l0,0l0,0
			c-0.7,0.1-1.3,0.6-1.7,1.4c-0.6,0.9-0.7,2.1-0.5,3c0.8,2.2,2.4,2.4,4.6,2.5l0,0l0,0c1.3,0.7,1.5,2.5,1.8,4.2
			C13.7,24,13.8,24.8,14.1,25.5z M2.5,20.4l-0.3-0.8c-0.8-2-1.1-4.3-0.8-6.4l0-0.4l0.2,0.3C3,13.4,3.7,14,3.9,14.5
			C4,14.8,3.9,15,3.8,15.1l0,0c-1,0.9-1.5,2.6-1.4,4.5L2.5,20.4z M1.6,13.4c-0.2,1.8,0,3.7,0.6,5.4c0-1.6,0.5-3.1,1.5-3.9
			c0.1-0.1,0.1-0.2,0-0.4C3.5,14.2,2.9,13.6,1.6,13.4z M1.8,10.9l0.3-0.7c0.8-2.1,2-4,3.7-5.5l0,0l0.1,0c0.1,0,0.1,0,0.2,0.1
			C7,5,7.9,5.3,8,5.8C8.1,6,8,6.2,7.7,6.3c-0.3,1-1.4,2.1-2.4,2.6C4.7,9.2,4.1,9.2,3.6,9.1c-0.4,0.3-0.9,0.7-1.3,1.2L1.8,10.9z
			 M5.9,4.9C4.5,6.2,3.3,7.8,2.6,9.6C2.9,9.3,3.2,9,3.5,8.8l0.1,0l0.1,0C4.1,9,4.7,9,5.3,8.7c1.1-0.5,2-1.7,2.3-2.5l0,0l0,0
			C7.7,6,7.8,5.9,7.8,5.8C7.7,5.5,6.7,5.1,6,4.9C6,4.9,5.9,4.9,5.9,4.9z"/>
	</g>
	
		<linearGradient id="SVGID_1_" gradientUnits="userSpaceOnUse" x1="5.1202" y1="22.6616" x2="3.0592" y2="23.8515" gradientTransform="matrix(8.9549 0 0 -8.9549 -21.6016 223.1804)">
		<stop  offset="0" style="stop-color:#3E79CA"/>
		<stop  offset="1" style="stop-color:#36A8FF"/>
	</linearGradient>
	<path class="st5" d="M14.8,28.8c-3.7,0-7.3-1.5-9.9-4.1c-2.7-2.7-4.1-6.2-4.1-9.9s1.5-7.3,4.1-9.9c2.7-2.7,6.2-4.1,9.9-4.1
		s7.3,1.5,9.9,4.1c2.7,2.7,4.1,6.2,4.1,9.9s-1.5,7.3-4.1,9.9S18.6,28.8,14.8,28.8z M14.8,1.8c-3.5,0-6.7,1.3-9.2,3.8
		c-2.4,2.4-3.8,5.7-3.8,9.2s1.3,6.7,3.8,9.2c2.4,2.4,5.7,3.8,9.2,3.8s6.7-1.3,9.2-3.8c2.4-2.4,3.8-5.7,3.8-9.2S26.4,8.1,24,5.6
		C21.5,3.2,18.3,1.8,14.8,1.8z"/>
</g>
</svg>
