<?xml version="1.0" encoding="UTF-8"?>
<svg width="56px" height="40px" viewBox="0 0 56 40" version="1.1" xmlns="http://www.w3.org/2000/svg" xmlns:xlink="http://www.w3.org/1999/xlink">
    <title>Atoms/Flags/Asia/flag_Saudi_Arabia_SA</title>
    <defs>
        <rect id="path-1" x="0" y="0" width="56" height="40"></rect>
    </defs>
    <g id="Atoms/Flags/Asia/flag_Saudi_Arabia_SA" stroke="none" stroke-width="1" fill="#ffffff" fill-rule="evenodd">
        <g id="SA">
            <mask id="mask-2" fill="white">
                <use xlink:href="#path-1"></use>
            </mask>
            <use id="Mask" fill="#FFFFFF" xlink:href="#path-1"></use>
            <rect id="Mask-Copy" fill="#128C4B" mask="url(#mask-2)" x="0" y="0" width="56" height="40"></rect>
            <path d="M13.3333333,24 L34.6666667,24 L34.6666667,21.3319421 C34.6666667,20.5963308 35.2063065,20.2698199 35.8596067,20.59647 L37.3333333,21.3333333 L37.3333333,24 L41.3345991,24 C42.0702797,24 42.6666667,24.5911376 42.6666667,25.3320676 L42.6666667,26.6666667 C42.6666667,28.139426 41.4689858,29.3333333 40.0027825,29.3333333 L36.0056868,29.3333333 C35.2661664,29.3333333 34.6666667,28.7415136 34.6666667,28 L34.6666667,26.6666667 L17.3424606,26.6666667 C16.6010401,26.6666667 15.5833333,26.25 15.0523246,25.7189913 L13.3333333,24 Z" id="Rectangle-455" fill="#FFFFFF" mask="url(#mask-2)"></path>
            <path d="M13.3333333,16.6729126 C13.3333333,16.3012732 13.5416667,15.7916667 13.7996686,15.5336647 L14.2003314,15.133002 C14.4578812,14.8754521 14.4583333,14.4583333 14.2003314,14.2003314 L13.7996686,13.7996686 C13.5421188,13.5421188 13.3333333,13.0274328 13.3333333,12.6604207 L13.3333333,11.3395793 C13.3333333,10.9679399 13.6392339,10.6666667 14.0062459,10.6666667 L15.3270874,10.6666667 C15.6987268,10.6666667 16,10.9725672 16,11.3395793 L16,12.6604207 C16,13.0320601 16.1327197,13.067894 16.2959099,12.7415136 L17.0374235,11.2584864 C17.20085,10.9316334 17.6339835,10.6666667 17.993852,10.6666667 L20.6728147,10.6666667 C21.0376091,10.6666667 21.3333333,10.9625765 21.3333333,11.3333333 L21.3333333,11.3333333 C21.3333333,11.7015232 21.0274328,12 20.6604207,12 L19.3395793,12 C18.9679399,12 18.6666667,12.2959099 18.6666667,12.6666667 L18.6666667,12.6666667 C18.6666667,13.0348565 18.9725672,13.3333333 19.3395793,13.3333333 L20.6604207,13.3333333 C21.0320601,13.3333333 21.3333333,13.6353575 21.3333333,14.0088037 L21.3333333,17.9911963 C21.3333333,18.3642483 21.0274328,18.6666667 20.6604207,18.6666667 L19.3395793,18.6666667 C18.9679399,18.6666667 18.6666667,18.3607661 18.6666667,17.9937541 L18.6666667,16.6729126 C18.6666667,16.3012732 18.9625765,16 19.3333333,16 L19.3333333,16 C19.7015232,16 20,15.7040901 20,15.3333333 L20,15.3333333 C20,14.9651435 19.6940994,14.6666667 19.3270874,14.6666667 L18.0062459,14.6666667 C17.6346066,14.6666667 17.3333333,14.9673168 17.3333333,15.3271853 L17.3333333,18.006148 C17.3333333,18.3709424 17.0374235,18.6666667 16.6666667,18.6666667 L16.6666667,18.6666667 C16.2984768,18.6666667 16,18.3607661 16,17.9937541 L16,16.6729126 C16,16.3012732 15.7040901,16 15.3333333,16 L15.3333333,16 C14.9651435,16 14.6666667,16.3059006 14.6666667,16.6729126 L14.6666667,17.9937541 C14.6666667,18.3653934 14.3707568,18.6666667 14,18.6666667 L14,18.6666667 C13.6318102,18.6666667 13.3333333,18.3607661 13.3333333,17.9937541 L13.3333333,16.6729126 Z" id="Rectangle-456" fill="#FFFFFF" mask="url(#mask-2)"></path>
            <path d="M34.6666667,16.6729126 C34.6666667,16.3012732 34.875,15.7916667 35.133002,15.5336647 L35.5336647,15.133002 C35.7912146,14.8754521 35.7916667,14.4583333 35.5336647,14.2003314 L35.133002,13.7996686 C34.8754521,13.5421188 34.6666667,13.0274328 34.6666667,12.6604207 L34.6666667,11.3395793 C34.6666667,10.9679399 34.9725672,10.6666667 35.3395793,10.6666667 L36.6604207,10.6666667 C37.0320601,10.6666667 37.3333333,10.9725672 37.3333333,11.3395793 L37.3333333,12.6604207 C37.3333333,13.0320601 37.466053,13.067894 37.6292432,12.7415136 L38.3707568,11.2584864 C38.5341833,10.9316334 38.9673168,10.6666667 39.3271853,10.6666667 L42.006148,10.6666667 C42.3709424,10.6666667 42.6666667,10.9625765 42.6666667,11.3333333 L42.6666667,11.3333333 C42.6666667,11.7015232 42.3607661,12 41.9937541,12 L40.6729126,12 C40.3012732,12 40,12.2959099 40,12.6666667 L40,12.6666667 C40,13.0348565 40.3059006,13.3333333 40.6729126,13.3333333 L41.9937541,13.3333333 C42.3653934,13.3333333 42.6666667,13.6353575 42.6666667,14.0088037 L42.6666667,17.9911963 C42.6666667,18.3642483 42.3607661,18.6666667 41.9937541,18.6666667 L40.6729126,18.6666667 C40.3012732,18.6666667 40,18.3607661 40,17.9937541 L40,16.6729126 C40,16.3012732 40.2959099,16 40.6666667,16 L40.6666667,16 C41.0348565,16 41.3333333,15.7040901 41.3333333,15.3333333 L41.3333333,15.3333333 C41.3333333,14.9651435 41.0274328,14.6666667 40.6604207,14.6666667 L39.3395793,14.6666667 C38.9679399,14.6666667 38.6666667,14.9673168 38.6666667,15.3271853 L38.6666667,18.006148 C38.6666667,18.3709424 38.3707568,18.6666667 38,18.6666667 L38,18.6666667 C37.6318102,18.6666667 37.3333333,18.3607661 37.3333333,17.9937541 L37.3333333,16.6729126 C37.3333333,16.3012732 37.0374235,16 36.6666667,16 L36.6666667,16 C36.2984768,16 36,16.3059006 36,16.6729126 L36,17.9937541 C36,18.3653934 35.7040901,18.6666667 35.3333333,18.6666667 L35.3333333,18.6666667 C34.9651435,18.6666667 34.6666667,18.3607661 34.6666667,17.9937541 L34.6666667,16.6729126 Z" id="Rectangle-456" fill="#FFFFFF" mask="url(#mask-2)"></path>
            <path d="M32,12.6604207 C32,13.0320601 31.7916667,13.5416667 31.5186361,13.8146973 L31.1480306,14.1853027 C30.8821806,14.4511527 30.875,14.875 31.1480306,15.1480306 L31.5186361,15.5186361 C31.784486,15.784486 32,16.28538 32,16.6729126 L32,17.9937541 C32,18.3653934 31.71462,18.6666667 31.3270874,18.6666667 L30.0062459,18.6666667 C29.6346066,18.6666667 29.3333333,18.3812866 29.3333333,17.9937541 L29.3333333,16.6729126 C29.3333333,16.3012732 29.2102865,16.2460937 29.0240885,16.6184896 L28.3092448,18.0481771 C28.1384536,18.3897594 27.6861267,18.6666667 27.3394814,18.6666667 L24.6605186,18.6666667 C24.2957243,18.6666667 24,18.3574219 24,18 L24,18 C24,17.6318102 24.28538,17.3333333 24.6729126,17.3333333 L25.9937541,17.3333333 C26.3653934,17.3333333 26.6666667,17.0240885 26.6666667,16.6666667 L26.6666667,16.6666667 C26.6666667,16.2984768 26.3812866,16 25.9937541,16 L24.6729126,16 C24.3012732,16 24,15.7132568 24,15.3460286 L24,11.320638 C24,10.9594596 24.28538,10.6666667 24.6729126,10.6666667 L25.9937541,10.6666667 C26.3653934,10.6666667 26.6666667,10.9520467 26.6666667,11.3395793 L26.6666667,12.6604207 C26.6666667,13.0320601 26.3574219,13.3333333 26,13.3333333 L26,13.3333333 C25.6318102,13.3333333 25.3333333,13.6425781 25.3333333,14 L25.3333333,14 C25.3333333,14.3681898 25.6187134,14.6666667 26.0062459,14.6666667 L27.3270874,14.6666667 C27.6987268,14.6666667 28,14.3527934 28,14.006148 L28,11.3271853 C28,10.9623909 28.3092448,10.6666667 28.6666667,10.6666667 L28.6666667,10.6666667 C29.0348565,10.6666667 29.3333333,10.9520467 29.3333333,11.3395793 L29.3333333,12.6604207 C29.3333333,13.0320601 29.6425781,13.3333333 30,13.3333333 L30,13.3333333 C30.3681898,13.3333333 30.6666667,13.0479533 30.6666667,12.6604207 L30.6666667,11.3395793 C30.6666667,10.9679399 30.9759115,10.6666667 31.3333333,10.6666667 L31.3333333,10.6666667 C31.7015232,10.6666667 32,10.9520467 32,11.3395793 L32,12.6604207 L32,12.6604207 Z" id="Rectangle-456" fill="#FFFFFF" mask="url(#mask-2)"></path>
        </g>
    </g>
</svg>
