<?xml version="1.0" encoding="UTF-8"?>
<svg id="Layer_1" data-name="Layer 1" xmlns="http://www.w3.org/2000/svg" viewBox="0 0 46 36">
  <path d="M45.99,13.94c.03-.29-.01-.58-.13-.85l-2.67-5.85c-.31-4.04-3.69-7.24-7.81-7.24H10.63C6.51,0,3.12,3.2,2.81,7.24L.15,13.09C.05,13.3,0,13.53,0,13.76c0,1.99,1.08,3.75,2.77,4.6v13.38c0,2.35,1.91,4.26,4.26,4.26h31.95c2.35,0,4.26-1.91,4.26-4.26v-13.43c1.58-.84,2.69-2.46,2.76-4.36ZM40.67,9.45l2.1,4.6c-.14.95-.96,1.68-1.94,1.68-1.08,0-1.96-.88-1.96-1.96,0-.16-.03-.33-.07-.48l-1.21-3.83h3.09ZM34.22,9.45l1.43,4.53c-.11.98-.94,1.75-1.95,1.75-1.08,0-1.96-.88-1.96-1.96,0-.09,0-.18-.02-.27l-.7-4.04h3.21ZM24.6,9.45h3.16l.77,4.43c-.06,1.03-.92,1.85-1.96,1.85s-1.96-.88-1.96-1.96v-4.32ZM18.24,9.45h3.16v4.32c0,1.08-.88,1.96-1.96,1.96s-1.9-.82-1.96-1.85l.77-4.43ZM11.77,9.45h3.21l-.7,4.04c-.02.09-.02.18-.02.27,0,1.08-.88,1.96-1.96,1.96-1.01,0-1.85-.77-1.95-1.75l1.43-4.53ZM5.33,9.45h3.08l-1.21,3.83c-.05.16-.07.32-.07.48,0,.52-.2,1.02-.57,1.39-.37.37-.86.57-1.39.57h0c-.22,0-.45-.04-.67-.11-.67-.21-1.16-.83-1.27-1.56l2.11-4.62ZM38.97,33H7.03c-.69,0-1.26-.56-1.26-1.26v-12.87c1.11-.13,2.15-.59,2.97-1.38.93.89,2.18,1.43,3.56,1.43s2.64-.55,3.57-1.43c.93.89,2.18,1.43,3.56,1.43s2.64-.55,3.57-1.44c.93.89,2.18,1.44,3.57,1.44s2.64-.55,3.56-1.43c.93.89,2.18,1.43,3.57,1.43s2.63-.55,3.56-1.43c.79.76,1.83,1.24,2.98,1.38v12.87c0,.69-.56,1.26-1.26,1.26ZM14.78,23.31c-.35-.33-.75-.58-1.21-.75-.46-.18-.97-.27-1.53-.27s-1.06.09-1.52.27c-.46.18-.87.43-1.21.76-.35.33-.62.71-.81,1.14-.19.44-.29.92-.29,1.45s.1,1,.29,1.44c.19.44.46.82.81,1.15.35.33.75.58,1.22.76s.98.27,1.53.27,1.05-.09,1.51-.27c.46-.18.87-.43,1.21-.75s.62-.71.8-1.15c.19-.44.29-.93.29-1.45s-.09-1.01-.29-1.45c-.19-.44-.46-.82-.8-1.15ZM14.06,26.82c-.11.27-.26.51-.46.71-.2.2-.43.36-.7.47-.26.11-.55.17-.87.17s-.6-.05-.87-.17c-.27-.11-.5-.27-.69-.47-.2-.2-.35-.44-.46-.71-.11-.27-.17-.57-.17-.91s.05-.63.17-.91c.11-.27.26-.51.46-.71.2-.2.43-.36.69-.47.27-.11.56-.17.87-.17s.6.05.87.17c.26.11.5.27.7.47.2.2.35.44.46.71.11.27.17.57.17.91s-.05.63-.17.91ZM21.7,22.72c-.45-.2-.99-.3-1.62-.3h-3.03v7h1.63v-1.93h1.4c.63,0,1.17-.1,1.62-.31.45-.21.8-.5,1.05-.88.25-.38.37-.83.37-1.35s-.12-.97-.37-1.35c-.25-.38-.6-.67-1.05-.88ZM21.11,25.84c-.25.21-.63.32-1.12.32h-1.31v-2.43h1.31c.49,0,.87.1,1.12.31.25.21.38.51.38.9s-.13.69-.38.9ZM25.82,28.11h3.81v1.3h-5.42v-7h5.29v1.3h-3.68v1.51h3.25v1.27h-3.25v1.62ZM35.75,22.41h1.6v7h-1.34l-3.48-4.25v4.25h-1.6v-7h1.34l3.48,4.25v-4.25Z"/>
</svg>